<mxfile host="www.draw.io" modified="2023-03-25T15:16:30.794Z" agent="Mozilla/5.0 (Windows NT 10.0; Win64; x64) AppleWebKit/537.36 (KHTML, like Gecko) Chrome/111.0.0.0 Safari/537.36" etag="krMeRCmT7S3fNP0TSVWn" version="21.1.1" type="device">
  <diagram name="Страница 1" id="nmht9sjc1WVeQx6IL4Be">
    <mxGraphModel dx="1354" dy="654" grid="1" gridSize="10" guides="1" tooltips="1" connect="1" arrows="1" fold="1" page="1" pageScale="1" pageWidth="827" pageHeight="1169" math="0" shadow="0">
      <root>
        <mxCell id="0" />
        <mxCell id="1" parent="0" />
        <mxCell id="x05no1ut9lQ9DrBo7z-U-1" style="edgeStyle=orthogonalEdgeStyle;rounded=0;orthogonalLoop=1;jettySize=auto;html=1;exitX=0.5;exitY=1;exitDx=0;exitDy=0;" edge="1" parent="1" source="x05no1ut9lQ9DrBo7z-U-2">
          <mxGeometry relative="1" as="geometry">
            <mxPoint x="225" y="130" as="targetPoint" />
          </mxGeometry>
        </mxCell>
        <mxCell id="x05no1ut9lQ9DrBo7z-U-2" value="&lt;b&gt;&lt;font style=&quot;font-size: 16px;&quot;&gt;start&lt;/font&gt;&lt;/b&gt;" style="ellipse;whiteSpace=wrap;html=1;" vertex="1" parent="1">
          <mxGeometry x="170" y="60" width="110" height="50" as="geometry" />
        </mxCell>
        <mxCell id="x05no1ut9lQ9DrBo7z-U-3" style="edgeStyle=orthogonalEdgeStyle;rounded=0;orthogonalLoop=1;jettySize=auto;html=1;exitX=0.5;exitY=1;exitDx=0;exitDy=0;" edge="1" parent="1" source="x05no1ut9lQ9DrBo7z-U-4">
          <mxGeometry relative="1" as="geometry">
            <mxPoint x="225" y="200" as="targetPoint" />
          </mxGeometry>
        </mxCell>
        <mxCell id="x05no1ut9lQ9DrBo7z-U-4" value="&lt;b&gt;&lt;font style=&quot;font-size: 13px;&quot;&gt;string filledArray[7]&lt;/font&gt;&lt;/b&gt;" style="rounded=0;whiteSpace=wrap;html=1;" vertex="1" parent="1">
          <mxGeometry x="152.5" y="130" width="145" height="50" as="geometry" />
        </mxCell>
        <mxCell id="x05no1ut9lQ9DrBo7z-U-5" style="edgeStyle=orthogonalEdgeStyle;rounded=0;orthogonalLoop=1;jettySize=auto;html=1;exitX=0.5;exitY=1;exitDx=0;exitDy=0;" edge="1" parent="1" source="x05no1ut9lQ9DrBo7z-U-6">
          <mxGeometry relative="1" as="geometry">
            <mxPoint x="225" y="270" as="targetPoint" />
          </mxGeometry>
        </mxCell>
        <mxCell id="x05no1ut9lQ9DrBo7z-U-6" value="&lt;b&gt;&lt;font style=&quot;font-size: 13px;&quot;&gt;string currentArray[7]&lt;/font&gt;&lt;/b&gt;" style="rounded=0;whiteSpace=wrap;html=1;" vertex="1" parent="1">
          <mxGeometry x="152.5" y="200" width="145" height="50" as="geometry" />
        </mxCell>
        <mxCell id="x05no1ut9lQ9DrBo7z-U-7" style="edgeStyle=orthogonalEdgeStyle;rounded=0;orthogonalLoop=1;jettySize=auto;html=1;exitX=0.5;exitY=1;exitDx=0;exitDy=0;" edge="1" parent="1" source="x05no1ut9lQ9DrBo7z-U-8">
          <mxGeometry relative="1" as="geometry">
            <mxPoint x="225" y="330" as="targetPoint" />
          </mxGeometry>
        </mxCell>
        <mxCell id="x05no1ut9lQ9DrBo7z-U-8" value="&lt;b&gt;&lt;font style=&quot;font-size: 13px;&quot;&gt;int count = 0&lt;/font&gt;&lt;/b&gt;" style="rounded=0;whiteSpace=wrap;html=1;" vertex="1" parent="1">
          <mxGeometry x="165" y="270" width="120" height="40" as="geometry" />
        </mxCell>
        <mxCell id="x05no1ut9lQ9DrBo7z-U-9" style="edgeStyle=orthogonalEdgeStyle;rounded=0;orthogonalLoop=1;jettySize=auto;html=1;exitX=0.5;exitY=1;exitDx=0;exitDy=0;" edge="1" parent="1" source="x05no1ut9lQ9DrBo7z-U-10">
          <mxGeometry relative="1" as="geometry">
            <mxPoint x="225" y="430" as="targetPoint" />
          </mxGeometry>
        </mxCell>
        <mxCell id="x05no1ut9lQ9DrBo7z-U-10" value="&lt;b&gt;&lt;font style=&quot;font-size: 13px;&quot;&gt;for ( int i = 0; i &amp;lt; filledArray.Lenght; i ++)&lt;/font&gt;&lt;/b&gt;" style="shape=hexagon;perimeter=hexagonPerimeter2;whiteSpace=wrap;html=1;fixedSize=1;" vertex="1" parent="1">
          <mxGeometry x="165" y="330" width="120" height="80" as="geometry" />
        </mxCell>
        <mxCell id="x05no1ut9lQ9DrBo7z-U-11" style="edgeStyle=orthogonalEdgeStyle;rounded=0;orthogonalLoop=1;jettySize=auto;html=1;exitX=0;exitY=0.5;exitDx=0;exitDy=0;entryX=0;entryY=0.5;entryDx=0;entryDy=0;" edge="1" parent="1" source="x05no1ut9lQ9DrBo7z-U-12" target="x05no1ut9lQ9DrBo7z-U-16">
          <mxGeometry relative="1" as="geometry">
            <mxPoint x="130" y="580" as="targetPoint" />
          </mxGeometry>
        </mxCell>
        <mxCell id="x05no1ut9lQ9DrBo7z-U-12" value="&lt;b&gt;&lt;font style=&quot;font-size: 13px;&quot;&gt;if (filledArray[i] &amp;lt; 3)&lt;/font&gt;&lt;/b&gt;" style="rhombus;whiteSpace=wrap;html=1;" vertex="1" parent="1">
          <mxGeometry x="150" y="430" width="150" height="100" as="geometry" />
        </mxCell>
        <mxCell id="x05no1ut9lQ9DrBo7z-U-13" value="" style="endArrow=classic;html=1;rounded=0;exitX=1;exitY=0.5;exitDx=0;exitDy=0;entryX=1;entryY=0.5;entryDx=0;entryDy=0;" edge="1" parent="1" source="x05no1ut9lQ9DrBo7z-U-12" target="x05no1ut9lQ9DrBo7z-U-10">
          <mxGeometry width="50" height="50" relative="1" as="geometry">
            <mxPoint x="350" y="470" as="sourcePoint" />
            <mxPoint x="290" y="370" as="targetPoint" />
            <Array as="points">
              <mxPoint x="360" y="480" />
              <mxPoint x="360" y="420" />
              <mxPoint x="360" y="370" />
            </Array>
          </mxGeometry>
        </mxCell>
        <mxCell id="x05no1ut9lQ9DrBo7z-U-14" value="&lt;b&gt;&lt;font style=&quot;font-size: 13px;&quot;&gt;No&lt;/font&gt;&lt;/b&gt;" style="text;html=1;align=center;verticalAlign=middle;resizable=0;points=[];autosize=1;strokeColor=none;fillColor=none;" vertex="1" parent="1">
          <mxGeometry x="350" y="410" width="40" height="30" as="geometry" />
        </mxCell>
        <mxCell id="x05no1ut9lQ9DrBo7z-U-15" style="edgeStyle=orthogonalEdgeStyle;rounded=0;orthogonalLoop=1;jettySize=auto;html=1;exitX=1;exitY=0.5;exitDx=0;exitDy=0;" edge="1" parent="1" source="x05no1ut9lQ9DrBo7z-U-16">
          <mxGeometry relative="1" as="geometry">
            <mxPoint x="271" y="340" as="targetPoint" />
            <Array as="points">
              <mxPoint x="470" y="570" />
              <mxPoint x="470" y="339" />
              <mxPoint x="271" y="339" />
            </Array>
          </mxGeometry>
        </mxCell>
        <mxCell id="x05no1ut9lQ9DrBo7z-U-16" value="&lt;b style=&quot;border-color: var(--border-color);&quot;&gt;&lt;font style=&quot;border-color: var(--border-color); font-size: 13px;&quot;&gt;&lt;br&gt;currentArray[count] =&lt;b style=&quot;border-color: var(--border-color); font-size: 12px;&quot;&gt;&lt;font style=&quot;border-color: var(--border-color); font-size: 13px;&quot;&gt;filledArray[i];&lt;br&gt;&lt;/font&gt;&lt;/b&gt;count ++&lt;br&gt;&amp;nbsp;&lt;/font&gt;&lt;/b&gt;" style="rounded=0;whiteSpace=wrap;html=1;" vertex="1" parent="1">
          <mxGeometry x="160" y="540" width="140" height="60" as="geometry" />
        </mxCell>
        <mxCell id="x05no1ut9lQ9DrBo7z-U-17" style="edgeStyle=orthogonalEdgeStyle;rounded=0;orthogonalLoop=1;jettySize=auto;html=1;exitX=0.5;exitY=1;exitDx=0;exitDy=0;entryX=0.5;entryY=0;entryDx=0;entryDy=0;" edge="1" parent="1" source="x05no1ut9lQ9DrBo7z-U-18" target="x05no1ut9lQ9DrBo7z-U-21">
          <mxGeometry relative="1" as="geometry" />
        </mxCell>
        <mxCell id="x05no1ut9lQ9DrBo7z-U-18" value="&lt;b&gt;&lt;font style=&quot;font-size: 13px;&quot;&gt;for ( int i = 0; i &amp;lt; array.Lenght; i ++)&lt;/font&gt;&lt;/b&gt;" style="shape=hexagon;perimeter=hexagonPerimeter2;whiteSpace=wrap;html=1;fixedSize=1;" vertex="1" parent="1">
          <mxGeometry x="160" y="630" width="120" height="80" as="geometry" />
        </mxCell>
        <mxCell id="x05no1ut9lQ9DrBo7z-U-19" value="&lt;b&gt;&lt;font style=&quot;font-size: 14px;&quot;&gt;NewArray&lt;/font&gt;&lt;/b&gt;" style="rounded=1;whiteSpace=wrap;html=1;" vertex="1" parent="1">
          <mxGeometry x="360" y="125" width="120" height="60" as="geometry" />
        </mxCell>
        <mxCell id="x05no1ut9lQ9DrBo7z-U-20" value="&lt;b&gt;&lt;font style=&quot;font-size: 14px;&quot;&gt;PrintArray&lt;/font&gt;&lt;/b&gt;" style="rounded=1;whiteSpace=wrap;html=1;" vertex="1" parent="1">
          <mxGeometry x="330" y="630" width="120" height="60" as="geometry" />
        </mxCell>
        <mxCell id="x05no1ut9lQ9DrBo7z-U-21" value="&lt;b&gt;&lt;font style=&quot;font-size: 13px;&quot;&gt;array[i]&lt;/font&gt;&lt;/b&gt;" style="shape=document;whiteSpace=wrap;html=1;boundedLbl=1;" vertex="1" parent="1">
          <mxGeometry x="170" y="740" width="100" height="50" as="geometry" />
        </mxCell>
        <mxCell id="x05no1ut9lQ9DrBo7z-U-22" value="&lt;b&gt;&lt;font style=&quot;font-size: 13px;&quot;&gt;end&lt;/font&gt;&lt;/b&gt;" style="ellipse;whiteSpace=wrap;html=1;" vertex="1" parent="1">
          <mxGeometry x="175" y="810" width="90" height="60" as="geometry" />
        </mxCell>
        <mxCell id="x05no1ut9lQ9DrBo7z-U-23" style="edgeStyle=orthogonalEdgeStyle;rounded=0;orthogonalLoop=1;jettySize=auto;html=1;exitX=0.5;exitY=1;exitDx=0;exitDy=0;entryX=0.5;entryY=0;entryDx=0;entryDy=0;" edge="1" parent="1">
          <mxGeometry relative="1" as="geometry">
            <mxPoint x="219.5" y="780" as="sourcePoint" />
            <mxPoint x="219.5" y="810" as="targetPoint" />
          </mxGeometry>
        </mxCell>
      </root>
    </mxGraphModel>
  </diagram>
</mxfile>
